<?xml version="1.0" standalone="no"?>
<!DOCTYPE svg PUBLIC "-//W3C//DTD SVG 20010904//EN"
 "http://www.w3.org/TR/2001/REC-SVG-20010904/DTD/svg10.dtd">
<svg version="1.0" xmlns="http://www.w3.org/2000/svg"
 width="600.000000pt" height="591.000000pt" viewBox="0 0 600.000000 591.000000"
 preserveAspectRatio="xMidYMid meet">
<g transform="translate(0.000000,591.000000) scale(0.100000,-0.100000)"
fill="#623984" stroke="none">
<path d="M1195 3844 c-154 -63 -309 -126 -345 -140 -36 -15 -89 -37 -117 -50
l-53 -23 0 -196 0 -196 58 3 57 3 3 156 2 156 106 41 c58 23 108 42 112 42 13
0 1 -214 -13 -230 -34 -38 -22 -118 20 -134 91 -35 164 57 107 134 -26 35 -34
259 -9 277 15 12 99 43 115 43 9 0 12 -61 12 -252 l0 -253 -60 -62 -59 -63
-246 0 -247 0 -30 25 c-61 51 -153 25 -178 -51 -35 -104 97 -180 182 -105 l34
29 265 4 265 3 87 90 87 90 -4 286 c-3 157 -1 290 2 296 11 18 114 63 143 63
15 0 75 -21 135 -47 60 -25 210 -88 334 -138 l225 -91 0 -365 0 -364 -33 -95
c-87 -248 -292 -465 -579 -609 -73 -36 -87 -38 -130 -11 l-33 20 0 271 0 270
-92 100 -92 99 -258 0 c-286 0 -280 1 -261 -63 l9 -32 233 -3 233 -2 68 -68
68 -67 1 -217 c1 -120 -1 -218 -5 -218 -11 0 -50 23 -86 52 l-38 30 0 97 c0
72 4 102 16 119 41 59 1 142 -67 142 -64 0 -102 -83 -63 -138 19 -27 32 -132
16 -132 -22 0 -121 124 -171 215 l-53 95 -59 0 c-67 0 -67 1 -35 -71 103 -233
397 -508 670 -628 64 -28 59 -29 173 29 342 170 600 466 673 770 18 78 20 117
20 470 l0 385 -173 69 c-94 38 -273 111 -397 163 -123 51 -234 93 -245 92 -11
0 -146 -52 -300 -115z m-637 -797 c4 -20 -25 -34 -40 -19 -15 15 -1 44 19 40
10 -2 19 -11 21 -21z"/>
<path d="M1663 3450 c-183 -43 -250 -281 -114 -404 27 -24 27 -28 -5 -224 -35
-215 -44 -204 166 -203 212 0 201 -14 165 219 l-28 180 28 34 c61 72 83 177
51 252 -42 101 -165 170 -263 146z m100 -106 c82 -39 106 -158 44 -217 -18
-18 -41 -37 -51 -42 -18 -10 -17 -16 8 -173 36 -223 41 -202 -54 -202 -77 0
-80 1 -80 24 0 20 31 239 44 318 4 22 0 29 -31 45 -153 80 -36 321 120 247z"/>
<path d="M5518 3163 l-48 -4 0 -240 0 -239 50 0 50 0 0 245 c0 135 -1 244 -2
243 -2 -1 -24 -3 -50 -5z"/>
<path d="M2484 3108 c3 -29 6 -137 6 -240 l0 -188 45 0 45 0 2 167 3 167 69
-109 c159 -254 134 -225 191 -225 l50 0 1 240 2 240 -49 0 -49 0 -2 -162 -3
-162 -105 162 -105 162 -54 0 -54 0 7 -52z"/>
<path d="M3710 3110 c0 -43 -3 -50 -20 -50 -28 0 -29 -69 -1 -77 17 -4 19 -17
22 -125 l4 -120 33 -29 c28 -25 40 -29 92 -29 l60 0 0 40 c0 39 -1 40 -33 40
-51 0 -57 13 -57 121 l0 98 43 3 c41 3 42 4 45 41 l3 37 -45 0 -46 0 0 50 0
50 -50 0 -50 0 0 -50z"/>
<path d="M5095 2998 c-32 -90 -70 -198 -86 -240 l-28 -78 53 0 53 0 13 45 13
45 97 0 97 0 13 -45 13 -45 48 0 c61 0 63 -20 -30 250 l-78 225 -60 3 -60 3
-58 -163z m152 -53 l31 -95 -68 0 c-78 0 -74 -14 -30 118 13 39 27 72 30 72 3
0 20 -43 37 -95z"/>
<path d="M3044 3051 c-74 -34 -109 -103 -102 -201 10 -135 130 -213 254 -165
41 16 104 80 104 107 0 20 -92 8 -122 -17 -54 -46 -138 -15 -138 51 0 11 25
14 135 14 l135 0 0 38 c0 147 -133 233 -266 173z m141 -86 c46 -45 35 -55 -60
-55 -95 0 -107 11 -59 55 36 33 87 33 119 0z"/>
<path d="M4030 3059 c-126 -50 -155 -254 -48 -344 86 -72 223 -50 277 45 l22
40 -47 0 c-36 0 -54 -6 -71 -22 -47 -44 -129 -22 -148 40 l-6 22 136 0 c153 0
152 -1 141 74 -18 115 -147 188 -256 145z m131 -98 c45 -46 39 -51 -60 -51
-85 0 -89 1 -84 20 16 60 97 77 144 31z"/>
<path d="M4495 3060 c-11 -4 -30 -18 -42 -29 l-23 -22 0 26 c0 23 -3 25 -50
25 l-50 0 0 -190 0 -190 50 0 50 0 0 118 c0 137 8 156 70 166 35 5 40 9 40 34
0 15 3 37 6 50 7 24 -12 29 -51 12z"/>
<path d="M4665 3057 c-81 -37 -125 -139 -104 -239 28 -129 179 -189 267 -108
l22 21 0 -26 c0 -23 3 -25 50 -25 l50 0 0 190 0 190 -50 0 c-44 0 -50 -3 -50
-20 0 -20 0 -20 -29 1 -37 27 -114 35 -156 16z m150 -100 c52 -44 42 -152 -16
-182 -57 -30 -113 -8 -139 54 -41 99 77 196 155 128z"/>
<path d="M3376 2965 l65 -95 -61 -89 c-72 -108 -71 -101 -10 -101 l50 0 31 61
31 62 40 -62 41 -61 54 0 55 0 -18 28 c-9 15 -37 57 -62 94 l-44 67 56 91 c67
108 67 100 9 100 -48 0 -48 0 -78 -55 -36 -67 -35 -67 -76 0 l-33 55 -57 0
-58 0 65 -95z"/>
<path d="M2256 2548 c-41 -85 -132 -211 -200 -278 -54 -52 -57 -62 -15 -50
156 45 468 50 644 11 92 -20 276 -74 445 -130 298 -99 507 -135 795 -135 265
0 391 20 605 95 63 22 124 43 135 45 18 5 25 -6 54 -81 19 -47 37 -82 41 -78
4 4 38 67 75 138 37 72 76 144 85 160 10 17 38 67 63 112 l45 83 -76 24 c-42
14 -161 55 -265 91 -103 37 -191 65 -196 63 -6 -2 3 -32 18 -68 49 -115 56
-102 -71 -142 -402 -129 -765 -110 -1288 67 -298 100 -462 134 -696 142 l-162
6 -36 -75z"/>
</g>
</svg>
