<svg version="1.0" xmlns="http://www.w3.org/2000/svg" width="600.000000pt" height="591.000000pt" viewBox="0 0 600.000000 591.000000" preserveAspectRatio="xMidYMid meet" style="width: 455.021px; height: auto;"> <g transform="translate(0.000000,591.000000) scale(0.100000,-0.100000)" fill="#512593" stroke="none"> <path d="M3005 5423 c-77 -30 -477 -191 -890 -356 -412 -165 -790 -315 -840 -335 -49 -19 -93 -38 -97 -41 -4 -3 -8 -218 -8 -476 l-2 -470 142 0 142 0 -1 371 -2 370 28 13 c49 23 506 201 515 201 4 0 8 -114 8 -253 l0 -254 -26 -24 c-158 -145 -33 -403 175 -361 166 35 220 221 100 347 l-29 31 -2 302 c-1 182 2 306 8 312 9 9 299 130 312 130 4 0 6 -278 4 -618 l-2 -618 -148 -146 -147 -147 -596 -2 -596 -2 -38 42 c-196 216 -548 10 -446 -261 72 -190 302 -222 457 -63 l52 53 642 4 643 3 198 205 199 205 2 718 3 719 150 63 c225 96 126 117 878 -186 358 -144 726 -291 817 -326 90 -36 170 -68 178 -72 15 -9 25 -1484 10 -1616 -80 -712 -632 -1376 -1521 -1830 l-135 -70 -109 55 -108 55 -5 652 -5 653 -225 226 -225 226 -625 -7 c-344 -4 -628 -9 -631 -11 -6 -4 11 -99 32 -176 l10 -38 549 0 550 0 167 -156 168 -156 5 -531 c3 -293 4 -534 2 -536 -3 -6 -129 81 -229 157 l-73 55 0 227 0 226 35 42 c109 126 68 294 -81 338 -219 63 -365 -206 -195 -360 19 -18 21 -30 21 -153 l0 -134 -30 21 c-111 79 -366 422 -465 626 -31 63 -59 114 -63 115 -75 9 -292 7 -292 -4 0 -49 162 -361 271 -523 229 -341 650 -713 1099 -971 140 -81 428 -223 451 -223 50 0 453 213 657 347 767 503 1194 1115 1292 1846 16 121 14 1802 -2 1814 -7 5 -161 70 -343 143 -587 237 -953 386 -1279 519 -176 72 -320 131 -320 130 -1 0 -64 -25 -141 -56z m-2143 -2110 c41 -37 10 -103 -48 -103 -34 0 -64 28 -64 60 0 52 72 80 112 43z" class=""></path> <path d="M3480 4221 c-422 -137 -543 -636 -229 -941 l68 -66 -29 -174 c-17 -96 -46 -277 -65 -402 -64 -411 -85 -391 410 -391 346 -1 389 4 431 50 36 38 32 79 -41 523 l-66 396 79 80 c354 359 100 946 -408 943 -63 0 -113 -6 -150 -18z m295 -240 c259 -123 262 -460 5 -595 -46 -24 -70 -43 -70 -55 0 -21 118 -750 130 -804 6 -27 5 -39 -3 -42 -32 -10 -217 -15 -307 -9 -100 7 -101 7 -95 31 5 20 135 828 135 839 0 2 -31 19 -69 38 -324 164 -218 623 144 626 57 0 81 -5 130 -29z" class=""></path> </g> </svg>